# Blender v2.62 (sub 0) OBJ File: ''
# www.blender.org
mtllib six.mtl
o Text_Text.001
v -0.344403 0.000000 0.677758
v -0.300661 0.000000 0.648952
v -0.260266 0.000000 0.618055
v -0.223275 0.000000 0.585236
v -0.189748 0.000000 0.550661
v -0.159743 0.000000 0.514501
v -0.133321 0.000000 0.476921
v -0.110538 0.000000 0.438091
v -0.091455 0.000000 0.398177
v -0.076129 0.000000 0.357349
v -0.064621 0.000000 0.315773
v -0.056989 0.000000 0.273618
v -0.053291 0.000000 0.231052
v -0.053715 0.000000 0.195996
v -0.057765 0.000000 0.162893
v -0.065286 0.000000 0.131930
v -0.076121 0.000000 0.103295
v -0.090115 0.000000 0.077175
v -0.107112 0.000000 0.053756
v -0.126956 0.000000 0.033225
v -0.149492 0.000000 0.015770
v -0.174562 0.000000 0.001577
v -0.202013 0.000000 -0.009167
v -0.231686 0.000000 -0.016275
v -0.263428 0.000000 -0.019559
v -0.290335 0.000000 -0.018742
v -0.316418 0.000000 -0.014273
v -0.341408 0.000000 -0.006404
v -0.365033 0.000000 0.004616
v -0.387023 0.000000 0.018536
v -0.407106 0.000000 0.035109
v -0.425014 0.000000 0.054083
v -0.440474 0.000000 0.075208
v -0.453217 0.000000 0.098236
v -0.462971 0.000000 0.122915
v -0.469467 0.000000 0.148997
v -0.472432 0.000000 0.176232
v -0.471864 0.000000 0.203930
v -0.468019 0.000000 0.230429
v -0.461081 0.000000 0.255516
v -0.451231 0.000000 0.278978
v -0.438653 0.000000 0.300603
v -0.423530 0.000000 0.320180
v -0.406042 0.000000 0.337495
v -0.386375 0.000000 0.352336
v -0.364709 0.000000 0.364492
v -0.341228 0.000000 0.373748
v -0.316114 0.000000 0.379894
v -0.289550 0.000000 0.382717
v -0.278505 0.000000 0.382876
v -0.267848 0.000000 0.382484
v -0.257573 0.000000 0.381590
v -0.247677 0.000000 0.380243
v -0.238154 0.000000 0.378492
v -0.228998 0.000000 0.376386
v -0.220206 0.000000 0.373973
v -0.211772 0.000000 0.371303
v -0.203691 0.000000 0.368424
v -0.195957 0.000000 0.365385
v -0.188567 0.000000 0.362235
v -0.181515 0.000000 0.359023
v -0.190622 0.000000 0.382483
v -0.201943 0.000000 0.405858
v -0.215312 0.000000 0.428992
v -0.230561 0.000000 0.451726
v -0.247526 0.000000 0.473906
v -0.266040 0.000000 0.495374
v -0.285938 0.000000 0.515973
v -0.307052 0.000000 0.535547
v -0.329216 0.000000 0.553939
v -0.352266 0.000000 0.570992
v -0.376034 0.000000 0.586551
v -0.400354 0.000000 0.600457
v -0.156490 0.000000 0.258944
v -0.167101 0.000000 0.265115
v -0.176983 0.000000 0.270522
v -0.186274 0.000000 0.275202
v -0.195109 0.000000 0.279192
v -0.203626 0.000000 0.282528
v -0.211962 0.000000 0.285245
v -0.220254 0.000000 0.287380
v -0.228638 0.000000 0.288969
v -0.237252 0.000000 0.290049
v -0.246234 0.000000 0.290655
v -0.255718 0.000000 0.290824
v -0.265844 0.000000 0.290593
v -0.281672 0.000000 0.289038
v -0.296614 0.000000 0.285746
v -0.310567 0.000000 0.280826
v -0.323427 0.000000 0.274386
v -0.335090 0.000000 0.266534
v -0.345453 0.000000 0.257380
v -0.354414 0.000000 0.247030
v -0.361868 0.000000 0.235594
v -0.367712 0.000000 0.223180
v -0.371843 0.000000 0.209896
v -0.374157 0.000000 0.195852
v -0.374551 0.000000 0.181154
v -0.372997 0.000000 0.164925
v -0.369730 0.000000 0.149761
v -0.364835 0.000000 0.135741
v -0.358393 0.000000 0.122939
v -0.350488 0.000000 0.111433
v -0.341203 0.000000 0.101300
v -0.330621 0.000000 0.092615
v -0.318824 0.000000 0.085456
v -0.305896 0.000000 0.079899
v -0.291920 0.000000 0.076020
v -0.276979 0.000000 0.073897
v -0.261155 0.000000 0.073606
v -0.243611 0.000000 0.075733
v -0.226654 0.000000 0.080622
v -0.210589 0.000000 0.088173
v -0.195720 0.000000 0.098282
v -0.182354 0.000000 0.110847
v -0.170796 0.000000 0.125765
v -0.161350 0.000000 0.142933
v -0.154321 0.000000 0.162250
v -0.150016 0.000000 0.183612
v -0.148739 0.000000 0.206916
v -0.150795 0.000000 0.232061
vn 0.000000 1.000000 0.000000
usemtl 
s off
f 73//1 1//1 2//1
f 3//1 73//1 2//1
f 4//1 73//1 3//1
f 4//1 72//1 73//1
f 4//1 71//1 72//1
f 5//1 71//1 4//1
f 5//1 70//1 71//1
f 5//1 69//1 70//1
f 6//1 69//1 5//1
f 6//1 68//1 69//1
f 6//1 67//1 68//1
f 7//1 67//1 6//1
f 7//1 66//1 67//1
f 7//1 65//1 66//1
f 8//1 65//1 7//1
f 8//1 64//1 65//1
f 9//1 64//1 8//1
f 9//1 63//1 64//1
f 9//1 62//1 63//1
f 10//1 62//1 9//1
f 50//1 48//1 49//1
f 51//1 48//1 50//1
f 52//1 48//1 51//1
f 52//1 47//1 48//1
f 53//1 47//1 52//1
f 54//1 47//1 53//1
f 10//1 61//1 62//1
f 55//1 47//1 54//1
f 55//1 46//1 47//1
f 56//1 46//1 55//1
f 57//1 46//1 56//1
f 58//1 46//1 57//1
f 58//1 45//1 46//1
f 59//1 45//1 58//1
f 60//1 45//1 59//1
f 61//1 45//1 60//1
f 61//1 44//1 45//1
f 10//1 44//1 61//1
f 11//1 44//1 10//1
f 11//1 43//1 44//1
f 11//1 42//1 43//1
f 12//1 83//1 11//1
f 83//1 84//1 11//1
f 84//1 85//1 11//1
f 85//1 86//1 11//1
f 86//1 42//1 11//1
f 86//1 41//1 42//1
f 87//1 41//1 86//1
f 88//1 41//1 87//1
f 12//1 82//1 83//1
f 12//1 81//1 82//1
f 89//1 41//1 88//1
f 89//1 40//1 41//1
f 12//1 80//1 81//1
f 12//1 79//1 80//1
f 90//1 40//1 89//1
f 12//1 78//1 79//1
f 91//1 40//1 90//1
f 12//1 77//1 78//1
f 12//1 76//1 77//1
f 92//1 40//1 91//1
f 12//1 75//1 76//1
f 13//1 75//1 12//1
f 92//1 39//1 40//1
f 13//1 74//1 75//1
f 93//1 39//1 92//1
f 13//1 121//1 74//1
f 94//1 39//1 93//1
f 95//1 39//1 94//1
f 95//1 38//1 39//1
f 13//1 120//1 121//1
f 96//1 38//1 95//1
f 14//1 120//1 13//1
f 97//1 38//1 96//1
f 97//1 37//1 38//1
f 14//1 119//1 120//1
f 98//1 37//1 97//1
f 15//1 119//1 14//1
f 99//1 37//1 98//1
f 99//1 36//1 37//1
f 15//1 118//1 119//1
f 100//1 36//1 99//1
f 15//1 117//1 118//1
f 100//1 35//1 36//1
f 16//1 117//1 15//1
f 101//1 35//1 100//1
f 102//1 35//1 101//1
f 16//1 116//1 117//1
f 102//1 34//1 35//1
f 103//1 34//1 102//1
f 17//1 116//1 16//1
f 17//1 115//1 116//1
f 104//1 34//1 103//1
f 17//1 114//1 115//1
f 104//1 33//1 34//1
f 105//1 33//1 104//1
f 18//1 114//1 17//1
f 18//1 113//1 114//1
f 106//1 33//1 105//1
f 107//1 33//1 106//1
f 18//1 112//1 113//1
f 107//1 32//1 33//1
f 108//1 32//1 107//1
f 18//1 111//1 112//1
f 109//1 32//1 108//1
f 18//1 110//1 111//1
f 110//1 32//1 109//1
f 18//1 32//1 110//1
f 19//1 32//1 18//1
f 19//1 31//1 32//1
f 20//1 31//1 19//1
f 20//1 30//1 31//1
f 21//1 30//1 20//1
f 21//1 29//1 30//1
f 22//1 29//1 21//1
f 22//1 28//1 29//1
f 23//1 28//1 22//1
f 23//1 27//1 28//1
f 24//1 27//1 23//1
f 24//1 26//1 27//1
f 25//1 26//1 24//1
