# Blender v2.62 (sub 0) OBJ File: ''
# www.blender.org
mtllib two.mtl
o Text_Text.001
v -0.469349 0.000000 0.074274
v -0.208558 0.000000 0.084720
v -0.246371 0.000000 0.126719
v -0.280333 0.000000 0.165570
v -0.310569 0.000000 0.201637
v -0.337206 0.000000 0.235285
v -0.360369 0.000000 0.266875
v -0.380183 0.000000 0.296771
v -0.396775 0.000000 0.325337
v -0.410270 0.000000 0.352936
v -0.420794 0.000000 0.379931
v -0.428473 0.000000 0.406686
v -0.433432 0.000000 0.433563
v -0.435798 0.000000 0.460927
v -0.435283 0.000000 0.491632
v -0.431320 0.000000 0.520682
v -0.424066 0.000000 0.547903
v -0.413678 0.000000 0.573124
v -0.400311 0.000000 0.596171
v -0.384123 0.000000 0.616870
v -0.365269 0.000000 0.635049
v -0.343906 0.000000 0.650534
v -0.320190 0.000000 0.663153
v -0.294278 0.000000 0.672733
v -0.266325 0.000000 0.679100
v -0.236490 0.000000 0.682081
v -0.222812 0.000000 0.682190
v -0.209237 0.000000 0.681412
v -0.195738 0.000000 0.679742
v -0.182287 0.000000 0.677173
v -0.168855 0.000000 0.673699
v -0.155414 0.000000 0.669316
v -0.141936 0.000000 0.664017
v -0.128394 0.000000 0.657796
v -0.114759 0.000000 0.650647
v -0.101003 0.000000 0.642565
v -0.087099 0.000000 0.633544
v -0.073017 0.000000 0.623577
v -0.068094 0.000000 0.500676
v -0.082392 0.000000 0.516631
v -0.096420 0.000000 0.530686
v -0.110194 0.000000 0.542931
v -0.123733 0.000000 0.553454
v -0.137053 0.000000 0.562346
v -0.150172 0.000000 0.569696
v -0.163109 0.000000 0.575594
v -0.175879 0.000000 0.580129
v -0.188501 0.000000 0.583391
v -0.200993 0.000000 0.585471
v -0.213371 0.000000 0.586456
v -0.225653 0.000000 0.586438
v -0.241973 0.000000 0.584697
v -0.257387 0.000000 0.580890
v -0.271784 0.000000 0.575130
v -0.285055 0.000000 0.567527
v -0.297088 0.000000 0.558195
v -0.307775 0.000000 0.547245
v -0.317004 0.000000 0.534790
v -0.324666 0.000000 0.520941
v -0.330651 0.000000 0.505812
v -0.334847 0.000000 0.489513
v -0.337146 0.000000 0.472158
v -0.337436 0.000000 0.453858
v -0.336551 0.000000 0.440086
v -0.335032 0.000000 0.427146
v -0.332872 0.000000 0.414884
v -0.330067 0.000000 0.403149
v -0.326610 0.000000 0.391788
v -0.322494 0.000000 0.380647
v -0.317713 0.000000 0.369575
v -0.312263 0.000000 0.358419
v -0.306135 0.000000 0.347025
v -0.299325 0.000000 0.335242
v -0.291825 0.000000 0.322916
v -0.283631 0.000000 0.309896
v -0.267218 0.000000 0.285296
v -0.249117 0.000000 0.259923
v -0.229595 0.000000 0.233967
v -0.208922 0.000000 0.207619
v -0.187365 0.000000 0.181071
v -0.165192 0.000000 0.154512
v -0.142672 0.000000 0.128134
v -0.120073 0.000000 0.102128
v -0.097663 0.000000 0.076684
v -0.075711 0.000000 0.051993
v -0.054485 0.000000 0.028246
v -0.034253 0.000000 0.005634
v -0.033973 0.000000 -0.001361
v -0.465627 0.000000 -0.018652
vn -0.000000 1.000000 0.000000
usemtl 
s off
f 27//1 25//1 26//1
f 28//1 25//1 27//1
f 29//1 25//1 28//1
f 29//1 24//1 25//1
f 30//1 24//1 29//1
f 30//1 23//1 24//1
f 31//1 23//1 30//1
f 32//1 23//1 31//1
f 32//1 22//1 23//1
f 33//1 22//1 32//1
f 34//1 22//1 33//1
f 34//1 21//1 22//1
f 35//1 21//1 34//1
f 36//1 21//1 35//1
f 36//1 20//1 21//1
f 37//1 20//1 36//1
f 38//1 20//1 37//1
f 38//1 19//1 20//1
f 39//1 40//1 38//1
f 40//1 41//1 38//1
f 41//1 42//1 38//1
f 42//1 43//1 38//1
f 43//1 44//1 38//1
f 44//1 45//1 38//1
f 45//1 46//1 38//1
f 46//1 47//1 38//1
f 47//1 48//1 38//1
f 48//1 49//1 38//1
f 49//1 50//1 38//1
f 50//1 51//1 38//1
f 51//1 19//1 38//1
f 51//1 18//1 19//1
f 52//1 18//1 51//1
f 53//1 18//1 52//1
f 54//1 18//1 53//1
f 54//1 17//1 18//1
f 55//1 17//1 54//1
f 56//1 17//1 55//1
f 57//1 17//1 56//1
f 57//1 16//1 17//1
f 58//1 16//1 57//1
f 59//1 16//1 58//1
f 59//1 15//1 16//1
f 60//1 15//1 59//1
f 61//1 15//1 60//1
f 61//1 14//1 15//1
f 62//1 14//1 61//1
f 63//1 14//1 62//1
f 63//1 13//1 14//1
f 64//1 13//1 63//1
f 65//1 13//1 64//1
f 65//1 12//1 13//1
f 66//1 12//1 65//1
f 67//1 12//1 66//1
f 67//1 11//1 12//1
f 68//1 11//1 67//1
f 69//1 11//1 68//1
f 69//1 10//1 11//1
f 70//1 10//1 69//1
f 71//1 10//1 70//1
f 72//1 10//1 71//1
f 72//1 9//1 10//1
f 73//1 9//1 72//1
f 74//1 9//1 73//1
f 74//1 8//1 9//1
f 75//1 8//1 74//1
f 76//1 8//1 75//1
f 76//1 7//1 8//1
f 77//1 7//1 76//1
f 77//1 6//1 7//1
f 78//1 6//1 77//1
f 78//1 5//1 6//1
f 79//1 5//1 78//1
f 80//1 5//1 79//1
f 80//1 4//1 5//1
f 81//1 4//1 80//1
f 81//1 3//1 4//1
f 82//1 3//1 81//1
f 82//1 2//1 3//1
f 83//1 2//1 82//1
f 84//1 2//1 83//1
f 84//1 1//1 2//1
f 89//1 1//1 84//1
f 85//1 89//1 84//1
f 86//1 89//1 85//1
f 87//1 89//1 86//1
f 88//1 89//1 87//1
