# Blender v2.68 (sub 0) OBJ File: 'smalllabyrinth.blend'
# www.blender.org
mtllib smallboundingboxwithnobs.mtl
o Cube
v -6.000000 0.000000 -6.000000
v -5.000000 0.000000 -5.000000
v -6.000000 1.000000 -6.000000
v -5.000000 1.000000 -5.000000
v -6.000000 0.000000 8.000000
v -5.000000 0.000000 7.000000
v -6.000000 1.000000 8.000000
v -5.000000 1.000000 7.000000
v 9.000000 0.000000 -6.000000
v 8.000000 0.000000 -5.000000
v 9.000000 1.000000 -6.000000
v 8.000000 1.000000 -5.000000
v 8.000000 0.000000 7.000000
v 8.000000 1.000000 7.000000
v 9.000000 0.000000 8.000000
v 9.000000 1.000000 8.000000
v -6.000000 -3.000000 -6.000000
v 1.500000 -3.500000 1.000000
v -6.000000 -3.000000 8.000000
v -0.201962 -0.466455 -5.463281
v 9.000000 -3.000000 -6.000000
v -0.201962 -0.466456 -6.518788
v -0.293204 -0.515225 -5.463281
v 9.000000 -3.000000 8.000000
v -6.000000 -4.000000 -6.000000
v -0.293204 -0.515226 -6.518788
v -6.000000 -4.000000 8.000000
v -0.373178 -0.580858 -5.463281
v 9.000000 -4.000000 -6.000000
v 9.000000 -4.000000 8.000000
v -0.373178 -0.580858 -6.518788
v -0.438811 -0.660831 -5.463281
v -0.438811 -0.660832 -6.518788
v -0.487581 -0.752073 -5.463281
v -0.487581 -0.752073 -6.518788
v -0.517613 -0.851076 -5.463281
v -0.517613 -0.851076 -6.518788
v -0.527754 -0.954036 -5.463281
v -0.527754 -0.954036 -6.518788
v -0.517613 -1.056995 -5.463281
v -0.517613 -1.056996 -6.518788
v -0.487581 -1.155999 -5.463281
v -0.487581 -1.155999 -6.518788
v -0.438812 -1.247241 -5.463281
v -0.438812 -1.247241 -6.518788
v -0.373179 -1.327215 -5.463281
v -0.373179 -1.327215 -6.518788
v -0.293205 -1.392848 -5.463281
v -0.293205 -1.392848 -6.518788
v -0.201963 -1.441618 -5.463281
v -0.201963 -1.441618 -6.518788
v -0.102960 -1.471650 -5.463281
v -0.102960 -1.471650 -6.518788
v -0.000000 -1.481791 -5.463281
v -0.000000 -1.481791 -6.518788
v 0.102959 -1.471650 -5.463281
v 0.102959 -1.471650 -6.518788
v 0.201962 -1.441618 -5.463281
v 0.201962 -1.441618 -6.518788
v 0.293204 -1.392848 -5.463281
v 0.293204 -1.392848 -6.518788
v 0.373178 -1.327215 -5.463281
v 0.373178 -1.327215 -6.518788
v 0.438811 -1.247241 -5.463281
v 0.438811 -1.247241 -6.518788
v 0.487581 -1.155999 -5.463281
v 0.487581 -1.155999 -6.518788
v 0.517613 -1.056996 -5.463281
v 0.517613 -1.056996 -6.518788
v 0.527754 -0.954037 -5.463281
v 0.527754 -0.954037 -6.518788
v 0.517613 -0.851077 -5.463281
v 0.517613 -0.851077 -6.518788
v 0.487581 -0.752074 -5.463281
v 0.487581 -0.752074 -6.518788
v 0.438811 -0.660832 -5.463281
v 0.438811 -0.660833 -6.518788
v 0.373178 -0.580858 -5.463281
v 0.373178 -0.580858 -6.518788
v 0.293204 -0.515225 -5.463281
v 0.293204 -0.515226 -6.518788
v 0.201963 -0.466455 -5.463281
v 0.201963 -0.466456 -6.518788
v 0.102959 -0.436423 -5.463281
v 0.102959 -0.436423 -6.518788
v -0.000000 -0.426283 -5.463281
v -0.000000 -0.426283 -6.518788
v -0.102959 -0.436423 -6.518788
v -0.102959 -0.436423 -5.463281
v -6.525248 -0.954035 -0.527754
v -5.469740 -0.954035 -0.527754
v -6.525248 -1.056995 -0.517613
v -5.469740 -1.056995 -0.517613
v -6.525248 -1.155998 -0.487581
v -5.469740 -1.155998 -0.487581
v -6.525248 -1.247240 -0.438811
v -5.469740 -1.247240 -0.438811
v -6.525248 -1.327214 -0.373178
v -5.469740 -1.327214 -0.373178
v -6.525248 -1.392847 -0.293204
v -5.469740 -1.392847 -0.293204
v -6.525248 -1.441617 -0.201962
v -5.469740 -1.441617 -0.201962
v -6.525248 -1.471649 -0.102959
v -5.469740 -1.471649 -0.102959
v -6.525248 -1.481789 0.000000
v -5.469740 -1.481789 0.000000
v -6.525248 -1.471649 0.102960
v -5.469740 -1.471649 0.102960
v -6.525248 -1.441617 0.201963
v -5.469740 -1.441617 0.201963
v -6.525248 -1.392847 0.293205
v -5.469740 -1.392847 0.293205
v -6.525248 -1.327214 0.373179
v -5.469740 -1.327214 0.373179
v -6.525248 -1.247240 0.438812
v -5.469740 -1.247240 0.438812
v -6.525248 -1.155998 0.487581
v -5.469740 -1.155998 0.487581
v -6.525248 -1.056995 0.517614
v -5.469740 -1.056995 0.517614
v -6.525248 -0.954035 0.527754
v -5.469740 -0.954035 0.527754
v -6.525248 -0.851076 0.517614
v -5.469740 -0.851076 0.517614
v -6.525248 -0.752073 0.487581
v -5.469740 -0.752073 0.487581
v -6.525248 -0.660831 0.438812
v -5.469740 -0.660831 0.438812
v -6.525248 -0.580857 0.373179
v -5.469740 -0.580857 0.373179
v -6.525248 -0.515224 0.293205
v -5.469740 -0.515224 0.293205
v -6.525248 -0.466455 0.201963
v -5.469740 -0.466454 0.201963
v -6.525248 -0.436422 0.102959
v -5.469740 -0.436422 0.102959
v -6.525248 -0.426281 -0.000001
v -5.469740 -0.426281 -0.000001
v -6.525248 -0.436422 -0.102960
v -5.469740 -0.436422 -0.102960
v -6.525248 -0.466455 -0.201963
v -5.469740 -0.466455 -0.201963
v -6.525248 -0.515225 -0.293205
v -5.469740 -0.515225 -0.293205
v -6.525248 -0.580858 -0.373178
v -5.469740 -0.580858 -0.373178
v -6.525248 -0.660832 -0.438811
v -5.469740 -0.660832 -0.438811
v -6.525248 -0.752074 -0.487581
v -5.469740 -0.752074 -0.487581
v -6.525248 -0.851077 -0.517613
v -5.469740 -0.851077 -0.517613
vn 1.000000 -0.000000 0.000000
vn -0.000000 -0.000000 -1.000000
vn -0.000000 1.000000 0.000000
vn -1.000000 0.000000 -0.000000
vn 0.000000 -0.000000 1.000000
vn 0.707107 -0.000000 0.707107
vn 0.066519 -0.997785 0.000000
vn 0.000000 -0.997459 0.071247
vn 0.000000 -0.997459 -0.071247
vn -0.066519 -0.997785 0.000000
vn 0.881922 -0.471396 0.000000
vn -0.000000 0.098015 0.995185
vn 0.956940 -0.290284 0.000000
vn -0.000000 -0.956940 -0.290284
vn 0.995185 -0.098017 0.000000
vn 0.995185 0.098017 -0.000000
vn -0.000000 0.290284 0.956940
vn 0.956940 0.290284 -0.000000
vn -0.000000 -0.995185 -0.098015
vn 0.881922 0.471396 -0.000000
vn 0.773011 0.634393 -0.000000
vn -0.000000 0.471398 0.881921
vn 0.634394 0.773010 -0.000000
vn 0.000000 -0.995185 0.098015
vn 0.471399 0.881920 -0.000000
vn 0.290283 0.956941 -0.000000
vn 0.000000 0.634392 0.773012
vn 0.098015 0.995185 -0.000000
vn 0.000000 -0.956940 0.290284
vn 0.773011 -0.634393 0.000000
vn -0.000000 -0.881921 -0.471398
vn 0.634394 -0.773010 0.000000
vn 0.000000 -0.098015 0.995185
vn 0.471396 -0.881922 0.000000
vn 0.290285 -0.956940 0.000000
vn -0.000000 -0.773012 -0.634392
vn 0.098015 -0.995185 0.000000
vn 0.000000 -0.290284 0.956940
vn -0.098015 -0.995185 0.000000
vn -0.290284 -0.956941 0.000000
vn -0.000000 -0.634392 -0.773012
vn -0.471399 -0.881920 0.000000
vn 0.000000 -0.471398 0.881921
vn -0.634392 -0.773012 0.000000
vn -0.773011 -0.634393 0.000000
vn -0.000000 -0.471400 -0.881920
vn -0.881923 -0.471393 0.000000
vn 0.000000 -0.634392 0.773012
vn -0.956941 -0.290282 0.000000
vn -0.995185 -0.098017 0.000000
vn -0.000000 -0.290283 -0.956941
vn -0.995185 0.098017 -0.000000
vn 0.000000 -0.773012 0.634392
vn -0.956939 0.290289 -0.000000
vn -0.881922 0.471396 -0.000000
vn 0.000000 -0.098015 -0.995185
vn -0.773007 0.634398 -0.000000
vn 0.000000 -0.881921 0.471398
vn -0.634392 0.773012 -0.000000
vn -0.471398 0.881921 -0.000000
vn -0.098016 0.995185 -0.000000
vn -0.290284 0.956940 -0.000000
vn 0.000000 0.773012 0.634392
vn 0.000000 0.881922 0.471394
vn -0.000000 0.956941 0.290282
vn -0.000000 0.995185 0.098020
vn -0.000000 0.995185 -0.098020
vn -0.000000 0.956939 -0.290289
vn -0.000000 0.881921 -0.471398
vn 0.000000 0.773008 -0.634396
vn 0.000000 0.634392 -0.773012
vn 0.000000 0.471398 -0.881921
vn -0.000000 0.098016 -0.995185
vn -0.000000 0.290284 -0.956940
vn -0.290285 0.956940 -0.000000
vn -0.000000 0.881922 0.471395
vn 0.000000 0.881920 -0.471398
vn -0.000000 0.863779 0.503871
vn 0.000000 0.863779 -0.503871
vn 0.474100 0.880471 0.000000
vn -0.474100 0.880471 0.000000
usemtl Material
s off
f 9//1 15//1 21//1
f 1//2 3//2 9//2
f 6//2 8//2 13//2
f 2//1 4//1 6//1
f 4//3 3//3 8//3
f 3//4 1//4 7//4
f 3//3 4//3 11//3
f 4//5 2//5 12//5
f 7//5 5//5 16//5
f 8//3 7//3 14//3
f 12//6 10//6 11//6
f 16//1 15//1 11//1
f 13//4 14//4 10//4
f 14//3 16//3 12//3
f 24//5 19//5 30//5
f 19//4 17//4 27//4
f 21//1 24//1 29//1
f 1//2 9//2 17//2
f 15//5 5//5 24//5
f 5//4 1//4 19//4
f 17//2 21//2 25//2
f 25//7 18//7 27//7
f 18//8 25//8 29//8
f 27//9 18//9 30//9
f 30//10 18//10 29//10
f 15//1 24//1 21//1
f 3//2 11//2 9//2
f 8//2 14//2 13//2
f 4//1 8//1 6//1
f 3//3 7//3 8//3
f 1//4 5//4 7//4
f 4//3 12//3 11//3
f 2//5 10//5 12//5
f 5//5 15//5 16//5
f 7//3 16//3 14//3
f 10//6 9//6 11//6
f 15//1 9//1 11//1
f 14//4 12//4 10//4
f 16//3 11//3 12//3
f 19//5 27//5 30//5
f 17//4 25//4 27//4
f 24//1 30//1 29//1
f 9//2 21//2 17//2
f 5//5 19//5 24//5
f 1//4 17//4 19//4
f 21//2 29//2 25//2
usemtl Material.004
f 67//11 66//11 65//11
f 122//12 123//12 124//12
f 69//13 68//13 67//13
f 102//14 103//14 104//14
f 71//15 70//15 69//15
f 73//16 72//16 71//16
f 124//17 125//17 126//17
f 75//18 74//18 73//18
f 104//19 105//19 106//19
f 77//20 76//20 75//20
f 79//21 78//21 77//21
f 126//22 127//22 128//22
f 81//23 80//23 79//23
f 106//24 107//24 108//24
f 83//25 82//25 81//25
f 85//26 84//26 83//26
f 128//27 129//27 130//27
f 87//28 86//28 85//28
f 108//29 109//29 110//29
f 65//30 64//30 63//30
f 100//31 101//31 102//31
f 63//32 62//32 61//32
f 120//33 121//33 122//33
f 61//34 60//34 59//34
f 59//35 58//35 57//35
f 98//36 99//36 100//36
f 57//37 56//37 55//37
f 118//38 119//38 120//38
f 55//39 54//39 53//39
f 53//40 52//40 51//40
f 96//41 97//41 98//41
f 51//42 50//42 49//42
f 116//43 117//43 118//43
f 49//44 48//44 47//44
f 47//45 46//45 45//45
f 94//46 95//46 96//46
f 45//47 44//47 43//47
f 114//48 115//48 116//48
f 43//49 42//49 41//49
f 41//50 40//50 39//50
f 92//51 93//51 94//51
f 39//52 38//52 37//52
f 112//53 113//53 114//53
f 37//54 36//54 35//54
f 35//55 34//55 33//55
f 90//56 91//56 92//56
f 33//57 32//57 31//57
f 110//58 111//58 112//58
f 31//59 28//59 26//59
f 26//60 23//60 22//60
f 64//5 66//5 62//5
f 88//61 89//61 87//61
f 22//62 20//62 88//62
f 65//2 63//2 67//2
f 130//63 131//63 132//63
f 132//64 133//64 134//64
f 134//65 135//65 136//65
f 136//66 137//66 138//66
f 138//67 139//67 140//67
f 140//68 141//68 142//68
f 142//69 143//69 144//69
f 144//70 145//70 146//70
f 146//71 147//71 148//71
f 148//72 149//72 150//72
f 152//73 153//73 90//73
f 124//4 126//4 122//4
f 150//74 151//74 152//74
f 125//1 123//1 127//1
f 66//11 64//11 65//11
f 123//12 125//12 124//12
f 68//13 66//13 67//13
f 103//14 105//14 104//14
f 70//15 68//15 69//15
f 72//16 70//16 71//16
f 125//17 127//17 126//17
f 74//18 72//18 73//18
f 105//19 107//19 106//19
f 76//20 74//20 75//20
f 78//21 76//21 77//21
f 127//22 129//22 128//22
f 80//23 78//23 79//23
f 107//24 109//24 108//24
f 82//25 80//25 81//25
f 84//26 82//26 83//26
f 129//27 131//27 130//27
f 86//28 84//28 85//28
f 109//29 111//29 110//29
f 64//30 62//30 63//30
f 101//31 103//31 102//31
f 62//32 60//32 61//32
f 121//33 123//33 122//33
f 60//34 58//34 59//34
f 58//35 56//35 57//35
f 99//36 101//36 100//36
f 56//37 54//37 55//37
f 119//38 121//38 120//38
f 54//39 52//39 53//39
f 52//40 50//40 51//40
f 97//41 99//41 98//41
f 50//42 48//42 49//42
f 117//43 119//43 118//43
f 48//44 46//44 47//44
f 46//45 44//45 45//45
f 95//46 97//46 96//46
f 44//47 42//47 43//47
f 115//48 117//48 116//48
f 42//49 40//49 41//49
f 40//50 38//50 39//50
f 93//51 95//51 94//51
f 38//52 36//52 37//52
f 113//53 115//53 114//53
f 36//54 34//54 35//54
f 34//55 32//55 33//55
f 91//56 93//56 92//56
f 32//57 28//57 31//57
f 111//58 113//58 112//58
f 28//59 23//59 26//59
f 23//60 20//60 22//60
f 66//5 68//5 62//5
f 68//5 70//5 62//5
f 70//5 72//5 62//5
f 72//5 74//5 62//5
f 74//5 76//5 62//5
f 76//5 78//5 62//5
f 78//5 80//5 62//5
f 80//5 82//5 62//5
f 82//5 84//5 62//5
f 84//5 86//5 62//5
f 86//5 89//5 62//5
f 34//5 28//5 32//5
f 38//5 34//5 36//5
f 38//5 28//5 34//5
f 46//5 42//5 44//5
f 52//5 48//5 50//5
f 89//5 20//5 62//5
f 20//5 23//5 62//5
f 23//5 28//5 38//5
f 62//5 23//5 38//5
f 60//5 62//5 58//5
f 62//5 38//5 58//5
f 40//5 42//5 46//5
f 40//5 46//5 48//5
f 40//5 48//5 52//5
f 40//5 52//5 54//5
f 40//5 54//5 56//5
f 38//5 40//5 56//5
f 58//5 38//5 56//5
f 89//61 86//61 87//61
f 20//75 89//75 88//75
f 63//2 61//2 67//2
f 61//2 59//2 67//2
f 59//2 57//2 67//2
f 57//2 55//2 67//2
f 55//2 53//2 67//2
f 53//2 51//2 67//2
f 51//2 49//2 67//2
f 49//2 47//2 67//2
f 47//2 45//2 67//2
f 45//2 43//2 67//2
f 43//2 41//2 67//2
f 31//2 35//2 33//2
f 39//2 37//2 35//2
f 39//2 35//2 31//2
f 81//2 85//2 83//2
f 41//2 39//2 31//2
f 67//2 41//2 31//2
f 87//2 22//2 88//2
f 87//2 26//2 22//2
f 81//2 87//2 85//2
f 81//2 26//2 87//2
f 75//2 79//2 77//2
f 71//2 69//2 73//2
f 81//2 31//2 26//2
f 79//2 31//2 81//2
f 75//2 31//2 79//2
f 69//2 67//2 31//2
f 73//2 69//2 31//2
f 75//2 73//2 31//2
f 131//63 133//63 132//63
f 133//76 135//76 134//76
f 135//65 137//65 136//65
f 137//66 139//66 138//66
f 139//67 141//67 140//67
f 141//68 143//68 142//68
f 143//77 145//77 144//77
f 145//70 147//70 146//70
f 147//71 149//71 148//71
f 149//72 151//72 150//72
f 153//73 91//73 90//73
f 126//4 128//4 122//4
f 128//4 130//4 122//4
f 130//4 132//4 122//4
f 132//4 134//4 122//4
f 134//4 136//4 122//4
f 136//4 138//4 122//4
f 138//4 140//4 122//4
f 140//4 142//4 122//4
f 142//4 144//4 122//4
f 144//4 146//4 122//4
f 146//4 148//4 122//4
f 100//4 96//4 98//4
f 106//4 102//4 104//4
f 110//4 106//4 108//4
f 110//4 102//4 106//4
f 116//4 112//4 114//4
f 122//4 118//4 120//4
f 122//4 148//4 118//4
f 150//4 152//4 90//4
f 148//4 150//4 90//4
f 118//4 148//4 90//4
f 116//4 118//4 90//4
f 112//4 116//4 90//4
f 110//4 112//4 90//4
f 102//4 110//4 100//4
f 110//4 90//4 100//4
f 90//4 92//4 100//4
f 92//4 94//4 100//4
f 94//4 96//4 100//4
f 151//74 153//74 152//74
f 123//1 121//1 127//1
f 121//1 119//1 127//1
f 119//1 117//1 127//1
f 117//1 115//1 127//1
f 115//1 113//1 127//1
f 113//1 111//1 127//1
f 111//1 109//1 127//1
f 109//1 107//1 127//1
f 107//1 105//1 127//1
f 105//1 103//1 127//1
f 103//1 101//1 127//1
f 137//1 141//1 139//1
f 101//1 99//1 97//1
f 127//1 101//1 97//1
f 131//1 129//1 133//1
f 137//1 143//1 141//1
f 93//1 97//1 95//1
f 127//1 97//1 93//1
f 127//1 93//1 91//1
f 129//1 127//1 91//1
f 133//1 129//1 91//1
f 135//1 133//1 91//1
f 151//1 91//1 153//1
f 149//1 91//1 151//1
f 143//1 147//1 145//1
f 135//1 91//1 149//1
f 143//1 137//1 147//1
f 137//1 135//1 147//1
f 135//1 149//1 147//1
usemtl Material.005
f 10//78 2//78 18//78
f 6//79 13//79 18//79
f 2//80 6//80 18//80
f 13//81 10//81 18//81
