# Blender v2.62 (sub 0) OBJ File: 'table.blend'
# www.blender.org
o Cube
v -3.822484 0.056523 1.764614
v -3.822484 0.056523 -1.764613
v 3.822484 0.056523 -1.764613
v 3.822483 0.056523 1.764614
v -3.822486 -0.056523 1.764613
v -3.822482 -0.056523 -1.764615
v 3.822485 -0.056523 -1.764613
v 3.822484 -0.056523 1.764614
v 3.228822 0.056523 1.764614
v 3.228823 0.056523 -1.764613
v 3.228822 -0.056523 1.764614
v 3.228824 -0.056523 -1.764613
v -3.141789 0.056523 1.764614
v -3.141788 0.056523 -1.764613
v -3.141791 -0.056523 1.764613
v -3.141787 -0.056523 -1.764615
v -3.822484 0.056523 -1.394574
v 3.822484 0.056523 -1.394573
v -3.822483 -0.056523 -1.394575
v 3.822485 -0.056523 -1.394573
v 3.194634 0.056523 -1.425400
v 3.228824 -0.056523 -1.394573
v -3.175978 0.056523 -1.425400
v -3.141787 -0.056523 -1.394575
v -3.822484 0.056523 1.430782
v 3.822483 0.056523 1.430783
v -3.822486 -0.056523 1.430781
v 3.822484 -0.056523 1.430782
v 3.194633 0.056523 1.399956
v 3.228822 -0.056523 1.430782
v -3.175978 0.056523 1.399955
v -3.141790 -0.056523 1.430781
v 3.228822 0.302502 1.430783
v -3.141789 0.302502 1.430782
v -3.141788 0.302502 -1.394574
v 3.228823 0.302502 -1.394573
v 3.822483 0.302502 1.764614
v 3.822483 0.302502 1.430783
v 3.822484 0.302502 -1.394573
v -3.822484 0.302502 1.430782
v -3.822484 0.302502 -1.394574
v -3.822484 0.302502 1.764614
v 3.822484 0.302502 -1.764613
v -3.822484 0.302502 -1.764613
v -3.141788 0.302502 -1.764613
v 3.228823 0.302502 -1.764613
v -3.141789 0.302502 1.764614
v 3.228822 0.302502 1.764614
vn -0.000000 0.000003 1.000000
vn 0.000000 0.000006 -1.000000
vn -0.000000 -0.000011 1.000000
vn -0.000000 -0.000004 1.000000
vn 0.000000 0.000008 -1.000000
vn 0.000000 0.000007 -1.000000
vn 1.000000 0.000016 0.000001
vn -1.000000 -0.000008 -0.000001
vn -0.000000 1.000000 0.000000
vn 1.000000 -0.000018 0.000000
vn 1.000000 -0.000002 0.000001
vn -1.000000 -0.000007 -0.000000
vn -1.000000 -0.000006 -0.000001
vn 0.000000 -1.000000 0.000000
vn -0.000000 -0.124350 0.992238
vn -0.990478 0.137669 -0.000000
vn 0.990478 -0.137668 0.000000
vn -1.000000 0.000000 -0.000001
vn -1.000000 0.000000 -0.000000
vn 1.000000 0.000000 0.000000
vn 0.000000 0.124350 -0.992238
vn 0.000000 0.000000 1.000000
vn 0.000000 -0.000000 -1.000000
s off
f 12//1 7//1 3//1
f 12//1 3//1 10//1
f 9//2 4//2 8//2
f 9//2 8//2 11//2
f 6//3 16//3 14//3
f 6//3 14//3 2//3
f 16//4 12//4 10//4
f 16//4 10//4 14//4
f 1//5 13//5 15//5
f 1//5 15//5 5//5
f 13//6 9//6 11//6
f 13//6 11//6 15//6
f 19//7 6//7 2//7
f 19//7 2//7 17//7
f 7//8 20//8 18//8
f 7//8 18//8 3//8
f 20//9 7//9 12//9
f 20//9 12//9 22//9
f 24//9 16//9 6//9
f 24//9 6//9 19//9
f 22//9 12//9 16//9
f 22//9 16//9 24//9
f 25//10 1//10 5//10
f 25//10 5//10 27//10
f 27//11 19//11 17//11
f 27//11 17//11 25//11
f 20//12 28//12 26//12
f 20//12 26//12 18//12
f 28//13 8//13 4//13
f 28//13 4//13 26//13
f 8//9 28//9 30//9
f 8//9 30//9 11//9
f 28//9 20//9 22//9
f 28//9 22//9 30//9
f 21//14 29//14 31//14
f 21//14 31//14 23//14
f 15//9 32//9 27//9
f 15//9 27//9 5//9
f 32//9 24//9 19//9
f 32//9 19//9 27//9
f 11//9 30//9 32//9
f 11//9 32//9 15//9
f 30//9 22//9 24//9
f 30//9 24//9 32//9
f 31//15 29//15 33//15
f 31//15 33//15 34//15
f 23//16 31//16 34//16
f 23//16 34//16 35//16
f 29//17 21//17 36//17
f 29//17 36//17 33//17
f 26//18 4//18 37//18
f 26//18 37//18 38//18
f 18//19 26//19 38//19
f 18//19 38//19 39//19
f 25//20 17//20 41//20
f 25//20 41//20 40//20
f 1//20 25//20 40//20
f 1//20 40//20 42//20
f 21//21 23//21 35//21
f 21//21 35//21 36//21
f 3//18 18//18 39//18
f 3//18 39//18 43//18
f 17//20 2//20 44//20
f 17//20 44//20 41//20
f 2//22 14//22 45//22
f 2//22 45//22 44//22
f 14//22 10//22 46//22
f 14//22 46//22 45//22
f 13//23 1//23 42//23
f 13//23 42//23 47//23
f 9//23 13//23 47//23
f 9//23 47//23 48//23
f 10//22 3//22 43//22
f 10//22 43//22 46//22
f 4//23 9//23 48//23
f 4//23 48//23 37//23
f 33//14 48//14 47//14
f 33//14 47//14 34//14
f 34//14 47//14 42//14
f 34//14 42//14 40//14
f 35//14 34//14 40//14
f 35//14 40//14 41//14
f 38//14 37//14 48//14
f 38//14 48//14 33//14
f 39//14 38//14 33//14
f 39//14 33//14 36//14
f 46//14 36//14 35//14
f 46//14 35//14 45//14
f 45//14 35//14 41//14
f 45//14 41//14 44//14
f 43//14 39//14 36//14
f 43//14 36//14 46//14
